name Walk5.mot
datacolumns 19
datarows 10
range 1.77500000 1.82000000
endheader

                time	   L_ground_force_vx	   L_ground_force_vy	   L_ground_force_vz	   L_ground_force_px	   L_ground_force_py	   L_ground_force_pz	   R_ground_force_vx	   R_ground_force_vy	   R_ground_force_vz	   R_ground_force_px	   R_ground_force_py	   R_ground_force_pz	   L_ground_torque_x	   L_ground_torque_y	   L_ground_torque_z	   R_ground_torque_x	   R_ground_torque_y	   R_ground_torque_z	
          1.77500000	          0.01551551	          0.03174805	         -0.00310024	         -0.00006403	          0.00000000	         -0.00003759	        -19.32228695	        367.49910094	        -29.42829546	          0.56602460	          0.00000000	          0.06292976	          0.00000000	          0.00015098	          0.00000000	          0.00000000	          1.45472328	          0.00000000	
          1.78000000	          0.00822532	          0.01405784	         -0.00190556	         -0.00004728	          0.00000000	         -0.00002801	        -18.30905394	        361.46898894	        -28.03008058	          0.56977274	          0.00000000	          0.06298974	          0.00000000	          0.00009269	          0.00000000	          0.00000000	          1.20913279	          0.00000000	
          1.78500000	          0.00289974	          0.00160165	         -0.00098873	         -0.00003280	          0.00000000	         -0.00001966	        -17.32719904	        357.55624065	        -26.77092718	          0.57304441	          0.00000000	          0.06297308	          0.00000000	          0.00004797	          0.00000000	          0.00000000	          0.97371278	          0.00000000	
          1.79000000	         -0.00074479	         -0.00651294	         -0.00032258	         -0.00002092	          0.00000000	         -0.00001275	        -16.36304844	        355.55500339	        -25.64563869	          0.57585788	          0.00000000	          0.06288605	          0.00000000	          0.00001550	          0.00000000	          0.00000000	          0.74599866	          0.00000000	
          1.79500000	         -0.00302305	         -0.01120157	          0.00013011	         -0.00001165	          0.00000000	         -0.00000731	        -15.40362754	        355.24888004	        -24.63693637	          0.57824373	          0.00000000	          0.06273804	          0.00000000	         -0.00000655	          0.00000000	          0.00000000	          0.52405730	          0.00000000	
          1.80000000	         -0.00424497	         -0.01332239	          0.00041013	         -0.00000478	          0.00000000	         -0.00000324	        -14.43406662	        356.42567797	        -23.72156311	          0.58024344	          0.00000000	          0.06253817	          0.00000000	         -0.00002017	          0.00000000	          0.00000000	          0.30548818	          0.00000000	
          1.80500000	         -0.00469283	         -0.01362879	          0.00055726	         -0.00000000	          0.00000000	         -0.00000038	        -13.43662590	        358.88751855	        -22.87814199	          0.58190715	          0.00000000	          0.06229357	          0.00000000	         -0.00002731	          0.00000000	          0.00000000	          0.08719198	          0.00000000	
          1.81000000	         -0.00460890	         -0.01274741	          0.00060754	          0.00000307	          0.00000000	          0.00000149	        -12.39436876	        362.46149613	        -22.09095490	          0.58328986	          0.00000000	          0.06201018	          0.00000000	         -0.00002973	          0.00000000	          0.00000000	         -0.13406996	          0.00000000	
          1.81500000	         -0.00419056	         -0.01117403	          0.00059174	          0.00000479	          0.00000000	          0.00000257	        -11.29345770	        367.00605700	        -21.35040613	          0.58444625	          0.00000000	          0.06169475	          0.00000000	         -0.00002893	          0.00000000	          0.00000000	         -0.36155614	          0.00000000	
          1.82000000	         -0.00359087	         -0.00928132	          0.00053480	          0.00000552	          0.00000000	          0.00000306	        -10.12415799	        372.41229915	        -20.65070307	          0.58542705	          0.00000000	          0.06135588	          0.00000000	         -0.00002613	          0.00000000	          0.00000000	         -0.59860678	          0.00000000	
